<mxfile host="app.diagrams.net" modified="2023-08-27T03:58:13.607Z" agent="Mozilla/5.0 (Windows NT 10.0; Win64; x64) AppleWebKit/537.36 (KHTML, like Gecko) Chrome/116.0.0.0 Safari/537.36 Edg/116.0.1938.54" version="21.6.9" etag="IG_VXIbHFBJlDETSqvNj" type="github">
  <diagram name="第 1 页" id="g7cE3GzgcsRKpcmrCLL8">
    <mxGraphModel>
      <root>
        <mxCell id="0" />
        <mxCell id="1" parent="0" />
      </root>
    </mxGraphModel>
  </diagram>
</mxfile>
